# xmcd CD database file generated by Grip 2.96
# 
# Track frame offsets:
#       150
#       5315
#       7048
#       13522
#       14531
#       19468
#       20609
#       28282
#       34075
#       36055
#       42870
#       44004
#       49170
#       56596
#       62506
#       64325
#       71039
#       76178
#       77381
#       84650
#       89423
#       92419
#       96553
#       100936
#       102123
# 
# Disc length: 1501 seconds
# 
# Revision: 0
# Processed by: cddbd v1.4PL0 Copyright (c) Steve Scherf et al.
# Submitted via: Grip 2.96
# 
DISCID=4005db19
DTITLE=Steve Griffin - Mel Bay's Blues Lead Guitar Method
DYEAR=1900
DGENRE=
TTITLE0=Tuning
TTITLE1=Solo 1 Intro
TTITLE2=Solo1
TTITLE3=Solo 1 Accompaniment Intro
TTITLE4=Solo 1 Accompaniment
TTITLE5=Solo 2 Intro
TTITLE6=Solo 2
TTITLE7=Solo 2 Accompaniment
TTITLE8=Solo 3 Intro
TTITLE9=Solo 3
TTITLE10=Solo 3 Accompaniment Intro
TTITLE11=Solo 3 Accompaniment
TTITLE12=Sliding
TTITLE13=Sliding Accompaniment
TTITLE14=Vibrato Intro
TTITLE15=Vibrato
TTITLE16=Vibrato Accompaniment
TTITLE17=Double Note Intro
TTITLE18=Double Note
TTITLE19=Double Note Accompaniment
TTITLE20=Key Change Intro
TTITLE21=Your Lead Accompaniment
TTITLE22=E Major Accompaniment
TTITLE23=In Conclusion
TTITLE24=Ending Solo
EXTD=
EXTT0=
EXTT1=
EXTT2=
EXTT3=
EXTT4=
EXTT5=
EXTT6=
EXTT7=
EXTT8=
EXTT9=
EXTT10=
EXTT11=
EXTT12=
EXTT13=
EXTT14=
EXTT15=
EXTT16=
EXTT17=
EXTT18=
EXTT19=
EXTT20=
EXTT21=
EXTT22=
EXTT23=
EXTT24=
PLAYORDER=
